
<svg id="Layer_2" data-name="Layer 2" xmlns="http://www.w3.org/2000/svg" viewBox="0 0 314.38 289.36">
  <defs>
    <style>
      .cls-1 {
        fill: #f15d5e;
      }

      .cls-1, .cls-2, .cls-3, .cls-4, .cls-5, .cls-6, .cls-7, .cls-8 {
        stroke: #231f20;
        stroke-miterlimit: 10;
      }

      .cls-9 {
        fill: #231f20;
      }

      .cls-2 {
        fill: #230c14;
      }

      .cls-3 {
        fill: #3a68b2;
      }

      .cls-4 {
        fill: #f1e91c;
      }

      .cls-5 {
        fill: #fff;
      }

      .cls-6 {
        fill: #d4a6cd;
      }

      .cls-7 {
        fill: #86c774;
      }

      .cls-8 {
        fill: #8b411e;
      }
    </style>
  </defs>
  <g id="Head">
    <g>
      <path class="cls-8" d="M20.06,251.77c-6.74-6.74-.96-20.21-.96-20.21,0,0-15.4,4.81-18.29,0s15.4-8.66,7.7-27.92,18.29-51.98,16.36-47.17-16.36,3.85-16.36,3.85c0,0,18.29-8.66,13.48-23.1s10.17-23.1,10.17-23.1h-14.02s21.18-5.78,10.97-18.29,26.02-12.51,26.02-12.51c-9.22.96-14.84-21.18-14.84-21.18,0,0,11.55,10.59,18.38,7.7S76.86-.43,90.92.53c14.06.96,32.14,69.31,32.14,69.31,0,0,54.87,12.51,84.71,2.89,0,0,9.63-70.27,25.03-72.19s29.84,78.24,36.58,79.07,19.25-7.84,19.25-7.84c0,0-4.81,16.36-11.55,17.33s13.48,4.81,11.55,12.51c-1.93,7.7,9.63,13.48,9.63,13.48,0,0-9.63.96-11.55,2.89s13.48,6.74,11.55,21.18c-1.93,14.44,9.63,25.03,9.63,25.03,0,0-11.55,1.93-14.44-2.89-2.89-4.81,15.4,10.59,14.44,24.06s3.85,26.95,5.78,32.73-11.55,7.7-11.55,7.7c0,0,8.66,10.59,2.89,16.36l-5.78,5.78-279.15,3.85Z"/>
      <path class="cls-8" d="M90.92.53c14.06,18.29,17.7,63.53,17.7,63.53,0,0-14.23-17.33-17.7-9.63s8.85,16.36,8.85,16.36c0,0-19.06-10.59-15.21,0s11.78,8.66,11.78,8.66"/>
      <path class="cls-8" d="M232.8.53c-10.59,9.63-14.93,69.31-14.93,69.31,0,0,13.97-23.1,14.93-12.51s-7.47,22.28-7.47,22.28c0,0,12.28-15.54,15.17-9.76s-4.81,15.4-4.81,15.4"/>
    </g>
    <path class="cls-9" d="M157.44,88.6s-13.25,47.7,0,71.56c0,0,12.04-25.44,0-71.56Z"/>
    <path class="cls-9" d="M181.83,93.9s-15.91,33.19-7.87,52.19c0,0,12.49-17.1,7.87-52.19Z"/>
    <path class="cls-9" d="M130.64,94.27s-2.65,36.71,11.79,51.45c0,0,5.36-20.48-11.79-51.45Z"/>
    <path class="cls-9" d="M205.57,100.92s-21.78,21.17-12.03,38.24c0,0,16.79-9.66,12.03-38.24Z"/>
    <path class="cls-9" d="M109.09,101.12s-4.78,29.99,13.25,37.84c0,0,7.67-17.79-13.25-37.84Z"/>
  </g>
  <g id="Layer_10" data-name="Layer 10">
    <path class="cls-5" d="M19.87,251.25l19.55-58.8s135.22-54.02,132.07-21.28,56.28-39.85,67.42-20.53c11.14,19.32,5.84,51.9,0,52.59-5.84.69,68.37-29.95,68.78-18.4s-5.78,40.43-5.78,40.43c0,0,8.66,10.59,2.89,16.36l-5.78,5.78-279.15,3.85Z"/>
  </g>
  <g id="Nose">
    <path class="cls-2" d="M169.01,195.36c1.89,2.12-11.13,7.43-11.13,7.43,0,0-14.29-4.77-12.78-7.23s20.32-4.24,23.92-.2Z"/>
  </g>
  <g id="Eye_02" data-name="Eye 02">
    <path class="cls-7" d="M184.5,187.06c1.38-70.12,47.71-41.43,62.33-5.54,0,0-30.76,46.09-62.33,5.54Z"/>
  </g>
  <g id="Pupil_02" data-name="Pupil 02">
    <path class="cls-9" d="M210.56,157.63s-6.03,21.71,0,32.57c0,0,5.48-11.58,0-32.57Z"/>
  </g>
  <g id="Eye_01" data-name="Eye 01">
    <path class="cls-7" d="M129.68,185.47c.41-70.14-46.63-42.64-62.17-7.13,0,0,29.57,46.86,62.17,7.13Z"/>
  </g>
  <g id="Pupil_01" data-name="Pupil 01">
    <path class="cls-9" d="M101.66,157.63s-6.03,21.71,0,32.57c0,0,5.48-11.58,0-32.57Z"/>
  </g>
  <g id="Whiskers">
    <ellipse class="cls-9" cx="206.08" cy="208.82" rx="1.1" ry="22.54" transform="translate(-12.46 404.56) rotate(-87.23)"/>
    <ellipse class="cls-9" cx="205.59" cy="222" rx=".95" ry="28.36" transform="translate(-59.24 368.36) rotate(-76.13)"/>
    <ellipse class="cls-9" cx="115.55" cy="209.39" rx="20.49" ry="1.08" transform="translate(-25.78 16.46) rotate(-7.33)"/>
    <ellipse class="cls-9" cx="118.24" cy="222.03" rx="25.38" ry=".95" transform="translate(-67.25 52.12) rotate(-19.47)"/>
  </g>
  <g id="Paint">
    <ellipse class="cls-1" cx="53.72" cy="158.5" rx="2.58" ry="7.34"/>
    <ellipse class="cls-6" cx="224.31" cy="116.87" rx="5.83" ry="8.6" transform="translate(23.82 271.07) rotate(-65.08)"/>
    <path class="cls-4" d="M12.54,175.03s15.23-15.76,34.48,0c19.25,15.76,4.81,36.94,4.81,36.94,0,0,32.21-19.25,44.5,0s-1.05,38.77-1.05,38.77l-75.22,1.04s-6.74-6.4-.96-20.21c0,0-19.8,5.31-18.29-2.21,0,0,3.7-3.85,8.11-10.13s-.41-15.58-.41-15.58c0,0-8.32-10.05,4.02-28.61Z"/>
    <path class="cls-1" d="M63.32,99.62c-7.12,6.59-19.56,6.59-18.1,16.1s7.08,16.87-.12,20.14-7.44,7.41,0,9,14.75-9.84,24.27-11.8-1.12,16.07,6.76,11.8,17.14-36.46,8.12-40.12,1.64-5.12-1.5-10.98-19.43,5.85-19.43,5.85Z"/>
    <path class="cls-3" d="M301.18,168.03s-15.97-.33-15.97,16.71,8.65,14.85,7.98,22.9-24.25,18.45-10.28,21.95,19.19-3.81,19.19-3.81c0,0,13.65-1.23,11.55-7.7s-5.36-21.18-5.36-21.18c0,0,5.55-13.59-7.11-28.88Z"/>
    <path class="cls-6" d="M167.79,76.04s-25.1,23.25,3.9,35c29,11.75,2.1,8.23,7.32,15.09s27.99-4.51,27.41-10.75,3.38-12.6,11.45-13.23,9.64-32.78-10.1-29.42-39.98,3.31-39.98,3.31Z"/>
  </g>
  <g id="Paw_02" data-name="Paw 02">
    <g>
      <path class="cls-8" d="M247.07,220.1s-39.11-7.64-42.94,34.36c0,0-9.2,20.62,4.6,29.02,13.8,8.4,15.37,0,15.37,0,0,0,9.94,8.99,17.61,3.73s19.94-3.73,19.17-11.37c-.77-7.64,33.74-12.22,24.54-30.54-9.2-18.33-38.34-25.2-38.34-25.2Z"/>
      <path class="cls-8" d="M224.1,283.48s-6.1-10.61,0-16.72"/>
      <path class="cls-8" d="M204.13,254.46s-6.68,6.87-7.45,14.51c-.77,7.64,12.05,14.51,12.05,14.51,0,0-8.81-12.51-4.6-29.02Z"/>
    </g>
  </g>
  <g id="Paw_01" data-name="Paw 01">
    <g>
      <path class="cls-8" d="M72.21,219.84s43.17-7.64,47.4,34.36c0,0,10.16,20.62-5.08,29.02s-16.96,0-16.96,0c0,0-10.97,8.99-19.43,3.73s-22.01-3.73-21.16-11.37c.85-7.64-37.24-12.22-27.09-30.54,10.16-18.33,42.32-25.2,42.32-25.2Z"/>
      <path class="cls-8" d="M97.57,283.22s6.74-10.61,0-16.72"/>
      <path class="cls-8" d="M119.61,254.2s7.37,6.87,8.22,14.51-13.3,14.51-13.3,14.51c0,0,9.73-12.51,5.08-29.02Z"/>
    </g>
  </g>
</svg>