<svg width="789" height="639" viewBox="0 0 789 639" fill="none" xmlns="http://www.w3.org/2000/svg">
<g clip-path="url(#clip0_15_183)">
<path d="M49.6352 624.035C33.2724 607.048 48.1803 573.973 48.1803 573.973C48.1803 573.973 9.87417 585.177 2.94542 573.141C-3.98333 561.105 41.4266 552.408 23.2591 504.39C5.09157 456.372 70.8584 376.572 65.8664 388.389C60.8743 400.206 25.2297 397.174 25.2297 397.174C25.2297 397.174 70.8584 376.572 59.6192 340.615C48.38 304.658 85.8224 283.906 85.8224 283.906L51.1482 283.268C51.1482 283.268 103.793 269.926 79.1112 238.5C54.4289 207.074 144.033 208.721 144.033 208.721C121.186 210.677 108.294 155.626 108.294 155.626C108.294 155.626 136.378 182.361 153.401 175.519C170.425 168.677 201.585 2.42952 236.315 5.44461C271.044 8.45969 312.651 178.446 312.651 178.446C312.651 178.446 447.786 211.902 522.024 189.449C522.024 189.449 549.037 15.9706 587.212 11.9187C625.387 7.86675 657.453 206.917 674.085 209.277C690.716 211.638 722.05 190.749 722.05 190.749C722.05 190.749 709.41 231.021 692.697 233.115C675.983 235.209 725.817 245.632 720.693 264.602C715.57 283.571 743.897 298.402 743.897 298.402C743.897 298.402 720.036 300.34 715.2 305.03C710.364 309.719 748.232 322.324 742.802 357.975C737.372 393.626 765.48 420.361 765.48 420.361C765.48 420.361 736.827 424.613 729.899 412.552C722.97 400.516 767.504 439.462 764.517 472.756C761.53 506.05 772.813 539.632 777.324 554.025C781.834 568.418 748.408 572.557 748.408 572.557C748.408 572.557 769.344 599.161 754.811 613.179L740.253 627.221L49.6842 624.061L49.6352 624.035Z" fill="#8B411E" stroke="#231F20" stroke-miterlimit="10"/>
<path d="M236.315 5.44461C270.256 51.3509 277.2 163.484 277.2 163.484C277.2 163.484 242.795 119.946 233.863 138.846C224.931 157.745 255.007 179.738 255.007 179.738C255.007 179.738 208.349 152.662 217.389 179.047C226.429 205.432 246.129 201.016 246.129 201.016" fill="#8B411E"/>
<path d="M236.315 5.44461C270.256 51.3509 277.2 163.484 277.2 163.484C277.2 163.484 242.795 119.946 233.863 138.846C224.931 157.745 255.007 179.738 255.007 179.738C255.007 179.738 208.349 152.662 217.389 179.047C226.429 205.432 246.129 201.016 246.129 201.016" stroke="#231F20" stroke-miterlimit="10"/>
<path d="M587.212 11.8939C560.583 35.2465 547.135 182.756 547.135 182.756C547.135 182.756 582.736 126.219 584.629 152.472C586.521 178.726 565.14 207.275 565.14 207.275C565.14 207.275 596.218 169.372 603.103 183.809C609.987 198.246 590.506 221.705 590.506 221.705" fill="#8B411E"/>
<path d="M587.212 11.8939C560.583 35.2465 547.135 182.756 547.135 182.756C547.135 182.756 582.736 126.219 584.629 152.472C586.521 178.726 565.14 207.275 565.14 207.275C565.14 207.275 596.218 169.372 603.103 183.809C609.987 198.246 590.506 221.705 590.506 221.705" stroke="#231F20" stroke-miterlimit="10"/>
<path d="M396.826 226.439C396.826 226.439 361.886 343.893 393.571 403.548C393.571 403.548 424.505 341.132 396.826 226.439Z" fill="#231F20"/>
<path d="M456.906 240.665C456.906 240.665 416.048 322.086 435.068 369.476C435.068 369.476 466.736 327.722 456.906 240.665Z" fill="#231F20"/>
<path d="M330.286 239.254C330.286 239.254 322.062 329.99 357.105 367.127C357.105 367.127 371.293 316.683 330.286 239.254Z" fill="#231F20"/>
<path d="M515.301 259.119C515.301 259.119 460.471 310.524 483.808 353.215C483.808 353.215 525.773 330.07 515.301 259.119Z" fill="#231F20"/>
<path d="M276.677 255.228C276.677 255.228 263.491 329.235 307.726 349.483C307.726 349.483 327.504 305.802 276.677 255.228Z" fill="#231F20"/>
<path d="M49.1889 622.74L100.215 478.1C100.215 478.1 437.098 350.549 427.818 431.436C418.538 512.324 568.823 335.367 595.495 383.69C622.168 432.012 607.578 512.406 593.103 513.848C578.628 515.291 763.558 442.831 764.047 471.435C764.535 500.04 747.913 571.236 747.913 571.236C747.913 571.236 768.849 597.839 754.316 611.858L739.758 625.9L49.1889 622.74Z" fill="white" stroke="#231F20" stroke-miterlimit="10"/>
<path d="M420.584 491.193C425.162 496.526 392.72 509.076 392.72 509.076C392.72 509.076 357.595 496.621 361.441 490.601C365.287 484.581 411.889 481.031 420.609 491.193L420.584 491.193Z" fill="#230C14" stroke="#231F20" stroke-miterlimit="10"/>
<path d="M459.272 471.355C465.874 297.873 579.153 370.985 613.678 460.477C613.678 460.477 535.506 573.15 459.272 471.355Z" fill="#86C774" stroke="#231F20" stroke-miterlimit="10"/>
<path d="M496.076 399.168C496.076 399.168 480.175 452.626 494.595 479.778C494.595 479.778 508.674 451.367 496.076 399.168Z" fill="#231F20"/>
<path d="M323.763 464.928C327.968 291.352 210.378 357.275 170.329 444.455C170.329 444.455 241.33 561.777 323.763 464.928Z" fill="#86C774" stroke="#231F20" stroke-miterlimit="10"/>
<path d="M286.992 395.325C286.992 395.325 271.091 448.783 285.51 475.935C285.51 475.935 299.59 447.524 286.992 395.325Z" fill="#231F20"/>
<path d="M567.273 529.891C567.374 528.391 542.548 525.509 511.824 523.455C481.099 521.401 456.111 520.952 456.011 522.453C455.911 523.953 480.736 526.835 511.461 528.889C542.185 530.943 567.173 531.392 567.273 529.891Z" fill="#231F20"/>
<path d="M577.581 576.822C577.916 575.567 547.838 566.456 510.401 556.472C472.964 546.488 442.345 539.412 442.01 540.667C441.676 541.922 471.754 551.033 509.191 561.017C546.628 571.001 577.247 578.077 577.581 576.822Z" fill="#231F20"/>
<path d="M287.997 526.16C315.822 523.097 338.247 519.424 338.086 517.956C337.924 516.488 315.237 517.782 287.413 520.845C259.588 523.908 237.163 527.581 237.324 529.049C237.486 530.516 260.173 529.223 287.997 526.16Z" fill="#231F20"/>
<path d="M294.534 557.155C327.431 546.192 353.767 536.306 353.357 535.074C352.947 533.842 325.946 541.73 293.049 552.692C260.152 563.655 233.816 573.54 234.226 574.773C234.636 576.005 261.637 568.117 294.534 557.155Z" fill="#231F20"/>
<path d="M136.792 412.891C140.316 412.956 143.322 404.875 143.507 394.842C143.691 384.809 140.984 376.623 137.46 376.559C133.936 376.494 130.929 384.575 130.745 394.608C130.561 404.641 133.268 412.826 136.792 412.891Z" fill="#F15D5E" stroke="#231F20" stroke-miterlimit="10"/>
<path d="M580.077 308.813C583.566 301.647 577.831 291.665 567.269 286.516C556.707 281.367 545.317 283.002 541.829 290.167C538.34 297.332 544.075 307.315 554.637 312.464C565.199 317.613 576.589 315.978 580.077 308.813Z" fill="#D4A6CD" stroke="#231F20" stroke-miterlimit="10"/>
<path d="M34.5275 433.764C34.5275 433.764 72.9112 395.451 119.803 435.332C166.696 475.212 130.019 526.976 130.019 526.976C130.019 526.976 210.557 480.797 240.077 528.999C269.597 577.2 235.716 624.905 235.716 624.905L49.6347 624.06C49.6347 624.06 33.2565 607.914 48.1798 573.997C48.1798 573.997 -1.03114 586.239 3.04547 567.696C3.04547 567.696 12.3714 558.336 23.5639 542.994C34.7564 527.651 23.2586 504.415 23.2586 504.415C23.2586 504.415 3.13876 479.163 34.5023 433.789L34.5275 433.764Z" fill="#F1E91C" stroke="#231F20" stroke-miterlimit="10"/>
<path d="M163.547 249.435C145.638 265.421 114.871 264.856 118.05 288.459C121.228 312.063 134.792 330.534 116.837 338.3C98.8809 346.066 98.099 356.301 116.427 360.574C134.756 364.848 153.355 336.891 176.989 332.473C200.623 328.055 173.488 372.195 193.171 361.985C212.854 351.775 237.22 272.527 215.078 263.058C192.936 253.59 219.367 250.461 211.868 235.815C204.368 221.169 163.547 249.41 163.547 249.41L163.547 249.435Z" fill="#F15D5E" stroke="#231F20" stroke-miterlimit="10"/>
<path d="M748.71 429.56C748.71 429.56 709.228 428.017 708.453 470.191C707.678 512.364 729.171 507.337 727.148 527.23C725.125 547.123 666.333 571.791 700.725 581.089C735.116 590.386 748.359 572.531 748.359 572.531C748.359 572.531 782.174 570.108 777.275 553.999C772.375 537.891 764.982 501.336 764.982 501.336C764.982 501.336 779.326 467.953 748.711 429.535L748.71 429.56Z" fill="#3A68B2" stroke="#231F20" stroke-miterlimit="10"/>
<path d="M422.995 195.824C422.995 195.824 359.86 252.226 431.048 282.625C502.236 313.024 435.867 303.09 448.466 320.305C461.064 337.521 517.896 310.415 516.745 294.945C515.594 279.475 525.678 263.914 545.665 262.722C565.652 261.529 570.998 182.031 522.024 189.449C473.05 196.868 422.995 195.824 422.995 195.824Z" fill="#D4A6CD" stroke="#231F20" stroke-miterlimit="10"/>
</g>
<defs>
<clipPath id="clip0_15_183">
<rect width="777.245" height="624.136" fill="white" transform="translate(11.4754) scale(1.00053) rotate(1.05295)"/>
</clipPath>
</defs>
</svg>
