<svg width="292" height="218" viewBox="0 0 292 218" fill="none" xmlns="http://www.w3.org/2000/svg">
<g clip-path="url(#clip0_15_224)">
<path d="M139.993 15.5798C139.993 15.5798 258.659 7.42143 258.057 121.595C258.057 121.595 279.572 179.969 236.049 198.187C192.525 216.405 190.288 193.319 190.288 193.319C190.288 193.319 158.117 214.35 136.795 197.775C115.473 181.2 78.475 181.426 82.9541 161.122C87.4331 140.818 -14.0331 117.596 18.5971 71.21C51.2514 24.8539 139.993 15.5798 139.993 15.5798Z" fill="#8B411E" stroke="#231F20" stroke-miterlimit="10"/>
<path d="M190.288 193.319C190.288 193.319 211.508 166.718 195.071 148.351L190.288 193.319Z" fill="#8B411E"/>
<path d="M190.288 193.319C190.288 193.319 211.508 166.718 195.071 148.351" stroke="#231F20" stroke-miterlimit="10"/>
<path d="M258.054 121.622C258.054 121.622 275.975 142.214 276.082 163.006C276.19 183.798 236.046 198.214 236.046 198.214C236.046 198.214 265.878 167.36 258.054 121.622Z" fill="#8B411E" stroke="#231F20" stroke-miterlimit="10"/>
</g>
<defs>
<clipPath id="clip0_15_224">
<rect width="273" height="190" fill="white" transform="translate(20.1137) scale(1.00088) rotate(6.07148)"/>
</clipPath>
</defs>
</svg>
