<svg width="286" height="237" viewBox="0 0 286 237" fill="none" xmlns="http://www.w3.org/2000/svg">
<g clip-path="url(#clip0_15_219)">
<path d="M142.092 21.1814C142.092 21.1814 29.8826 17.652 38.2306 136.268C38.2306 136.268 21.989 197.814 64.1679 214.943C106.347 232.072 106.907 207.985 106.907 207.985C106.907 207.985 138.62 228.503 157.565 210.394C176.51 192.285 211.323 190.988 205.721 170.076C200.118 149.164 294.006 120.798 260.124 73.9811C226.238 27.1367 142.092 21.1814 142.092 21.1814Z" fill="#8B411E" stroke="#231F20" stroke-miterlimit="10"/>
<path d="M106.903 207.958C106.903 207.958 85.1341 181.193 99.3286 161.429L106.903 207.958Z" fill="#8B411E"/>
<path d="M106.903 207.958C106.903 207.958 85.1341 181.193 99.3286 161.429" stroke="#231F20" stroke-miterlimit="10"/>
<path d="M38.2307 136.268C38.2307 136.268 22.7677 158.41 24.0875 180.019C25.4072 201.628 64.1679 214.943 64.1679 214.943C64.1679 214.943 34.0029 184.118 38.2307 136.268Z" fill="#8B411E" stroke="#231F20" stroke-miterlimit="10"/>
</g>
<defs>
<clipPath id="clip0_15_219">
<rect width="257" height="198" fill="white" transform="translate(0 41.3411) scale(1.00118) rotate(-9.24578)"/>
</clipPath>
</defs>
</svg>
